<svg xmlns="http://www.w3.org/2000/svg" width="78.395" height="22.585" viewBox="0 0 78.395 22.585">
  <path id="Combined_Shape" data-name="Combined Shape" d="M66.578,21.587a7.332,7.332,0,0,1-3.028-2.762,7.653,7.653,0,0,1-1.066-4.012,7.74,7.74,0,0,1,1.052-4,7.381,7.381,0,0,1,2.888-2.777A8.953,8.953,0,0,1,74.554,8a6.983,6.983,0,0,1,2.816,2.732,8.148,8.148,0,0,1,1.023,3.984v.165l-.017.25-.005.059a.913.913,0,0,1-.86.783H66.735l.025.111.031.131a3.685,3.685,0,0,0,1.481,2.166,4.991,4.991,0,0,0,2.948.841,5.991,5.991,0,0,0,2.147-.361,5.08,5.08,0,0,0,1.033-.6.917.917,0,0,1,1.171.091l.036.037,1.2,1.36.04.053a.993.993,0,0,1,.188.724.437.437,0,0,1-.185.293,10.861,10.861,0,0,1-5.738,1.766A9.933,9.933,0,0,1,66.578,21.587Zm1.541-10.594a3.767,3.767,0,0,0-1.293,2.324l-.035.214h7.916l-.015-.106-.023-.136a3.81,3.81,0,0,0-1.287-2.281,3.932,3.932,0,0,0-2.617-.905A4.017,4.017,0,0,0,68.119,10.994ZM49.469,22.029a13.745,13.745,0,0,1-2.132-.729l-.015-.007-.056-.027a.787.787,0,0,1-.362-1.052l.687-1.364.032-.062a1.238,1.238,0,0,1,.941-.665.514.514,0,0,1,.2.04,11.691,11.691,0,0,0,4.876,1.054h.055l.265,0,.1,0,.2-.009.193-.013.121-.01.233-.02.22-.022.063-.007.031,0h.011l.2-.025.189-.027.177-.03.028-.005.056-.011.159-.033.031-.008.032-.007.012,0,.142-.039c.636-.187.908-.487.908-1,0-.465-.4-.848-1.162-1.108a6.757,6.757,0,0,0-.671-.185l-.2-.042-.139-.028c-.227-.044-.481-.086-.774-.131l-.257-.036-.271-.035-.283-.034-.282-.041-.278-.041-.36-.058-.214-.035A21.474,21.474,0,0,1,50,15.686a5.1,5.1,0,0,1-2.213-1.261,3.377,3.377,0,0,1-.913-2.537,3.807,3.807,0,0,1,.867-2.453A5.686,5.686,0,0,1,50.3,7.745a12.031,12.031,0,0,1,4.045-.614,17.356,17.356,0,0,1,3.454.351,12.263,12.263,0,0,1,1.811.55l.049.021a.833.833,0,0,1,.455.481.759.759,0,0,1-.04.6l-.7,1.387-.03.053a.9.9,0,0,1-.768.416.938.938,0,0,1-.3-.05,13.066,13.066,0,0,0-3.926-.824,5.321,5.321,0,0,0-2.391.418,1.342,1.342,0,0,0-.868,1.184,1.213,1.213,0,0,0,.954,1.166c.076.027.166.055.288.09l.159.043.262.065.287.064.206.042.218.041.347.061.246.04.391.06.275.04.181.029.356.057.342.059.332.058.473.089.3.06.288.061.185.04c.29.066.573.136.842.209a4.909,4.909,0,0,1,2.165,1.247,3.335,3.335,0,0,1,.9,2.481,3.674,3.674,0,0,1-.88,2.409,5.765,5.765,0,0,1-2.611,1.661,12.791,12.791,0,0,1-4.138.6A17.209,17.209,0,0,1,49.469,22.029Zm-7.5.463-.072,0a1.327,1.327,0,0,1-1.278-1.31V20.131l-.318.347-.121.129a5.951,5.951,0,0,1-2,1.367,6.876,6.876,0,0,1-2.676.518,6.719,6.719,0,0,1-4.834-1.706A6.756,6.756,0,0,1,28.894,15.7V8.444l0-.069a1.334,1.334,0,0,1,1.348-1.243h1.541l.072,0a1.329,1.329,0,0,1,1.278,1.31v6.727c.038,2.521,1.182,3.8,3.4,3.8a3.7,3.7,0,0,0,2.79-1.108,4.555,4.555,0,0,0,1.055-3.252V8.444l0-.069a1.332,1.332,0,0,1,1.347-1.243h1.542l.072,0a1.328,1.328,0,0,1,1.277,1.31V21.181l0,.069a1.332,1.332,0,0,1-1.347,1.243Zm-18.184,0-.072,0A1.322,1.322,0,0,1,22.42,21.2V14.229a4.078,4.078,0,0,0-.833-2.68,3.031,3.031,0,0,0-2.385-.955,3.584,3.584,0,0,0-2.723,1.064,4.4,4.4,0,0,0-1,3.117V21.2l0,.068a1.332,1.332,0,0,1-1.361,1.22H12.558l-.072,0A1.322,1.322,0,0,1,11.2,21.2V14.25c-.037-2.425-1.12-3.656-3.218-3.656a3.546,3.546,0,0,0-2.694,1.064,4.4,4.4,0,0,0-1,3.117V21.2l0,.068a1.332,1.332,0,0,1-1.361,1.22H1.363l-.073,0A1.321,1.321,0,0,1,0,21.2V8.647l0-.068a1.331,1.331,0,0,1,1.361-1.22H2.708l.073,0a1.322,1.322,0,0,1,1.29,1.287V9.4l.317-.343L4.5,8.935a5.752,5.752,0,0,1,2-1.306,7.549,7.549,0,0,1,2.777-.5,7.039,7.039,0,0,1,2.99.621A5.205,5.205,0,0,1,14.4,9.547l.138.2.155-.187.113-.134a6.414,6.414,0,0,1,2.3-1.658,8.045,8.045,0,0,1,3.217-.637,6.494,6.494,0,0,1,4.652,1.637A6.53,6.53,0,0,1,26.7,13.7V21.2l0,.068a1.332,1.332,0,0,1-1.361,1.22Zm13.706-20.3a2.194,2.194,0,1,1,2.194,2.2A2.194,2.194,0,0,1,37.489,2.194Zm-5.852,0a2.194,2.194,0,1,1,2.194,2.2A2.194,2.194,0,0,1,31.637,2.194Z" fill="#1e1e1e"/>
</svg>
